<svg id="Capa_1" enable-background="new 0 0 512 512" height="512" viewBox="0 0 512 512" width="512" xmlns="http://www.w3.org/2000/svg"><g><path d="m417.282 450.289v-433.806c0-9.103-7.38-16.483-16.483-16.483h-336.24c-9.103 0-16.483 7.38-16.483 16.483v433.806c0 9.103 7.38 16.483 16.483 16.483h336.239c9.104 0 16.484-7.38 16.484-16.483z" fill="#9dc6fb"/><path d="m403.719 0h-30.897c9.103 0 16.483 7.38 16.483 16.483v433.806c0 9.103-7.38 16.483-16.483 16.483h30.897c9.103 0 16.483-7.38 16.483-16.483v-433.806c0-9.103-7.38-16.483-16.483-16.483z" fill="#80b4fb"/><path d="m461.003 495.517v-433.806c0-9.103-7.38-16.483-16.483-16.483h-336.24c-9.103 0-16.483 7.38-16.483 16.483v433.806c0 9.103 7.38 16.483 16.483 16.483h336.24c9.104 0 16.483-7.38 16.483-16.483z" fill="#e7ecf6"/><path d="m309.3 170.582h-73.72v73.72c40.714 0 73.72-33.005 73.72-73.72z" fill="#e28086"/><path d="m309.3 170.582c0-40.714-33.005-73.72-73.72-73.72s-73.72 33.005-73.72 73.72 33.005 73.72 73.72 73.72v-73.72z" fill="#95d6a4"/><g><path d="m425.3 133.004h-69.383c-4.268 0-7.726-3.459-7.726-7.726s3.459-7.726 7.726-7.726h69.383c4.268 0 7.726 3.459 7.726 7.726.001 4.266-3.458 7.726-7.726 7.726z" fill="#407093"/></g><g><path d="m425.3 172.953h-69.383c-4.268 0-7.726-3.459-7.726-7.726s3.459-7.726 7.726-7.726h69.383c4.268 0 7.726 3.459 7.726 7.726.001 4.267-3.458 7.726-7.726 7.726z" fill="#407093"/></g><g><path d="m425.3 212.903h-69.383c-4.268 0-7.726-3.459-7.726-7.726s3.459-7.726 7.726-7.726h69.383c4.268 0 7.726 3.459 7.726 7.726s-3.458 7.726-7.726 7.726z" fill="#407093"/></g><g fill="#ecbe6b"><path d="m198.164 466.772h-33.213c-1.707 0-3.091-1.384-3.091-3.091v-147.474c0-1.707 1.384-3.091 3.091-3.091h33.213c1.707 0 3.091 1.384 3.091 3.091v147.474c-.001 1.707-1.384 3.091-3.091 3.091z"/><path d="m269.619 466.772h-33.213c-1.707 0-3.091-1.384-3.091-3.091v-118.565c0-1.707 1.384-3.091 3.091-3.091h33.213c1.707 0 3.091 1.384 3.091 3.091v118.565c0 1.707-1.384 3.091-3.091 3.091z"/><path d="m341.075 466.772h-33.213c-1.707 0-3.091-1.384-3.091-3.091v-81.705c0-1.707 1.384-3.091 3.091-3.091h33.213c1.707 0 3.091 1.384 3.091 3.091v81.705c0 1.707-1.384 3.091-3.091 3.091z"/></g><g><path d="m425.3 320.843h-100.831c-4.268 0-7.726-3.459-7.726-7.726s3.459-7.726 7.726-7.726h100.831c4.268 0 7.726 3.459 7.726 7.726.001 4.266-3.458 7.726-7.726 7.726z" fill="#407093"/></g><g><path d="m425.3 360.792h-31.633c-4.268 0-7.726-3.459-7.726-7.726s3.459-7.726 7.726-7.726h31.633c4.268 0 7.726 3.459 7.726 7.726.001 4.267-3.458 7.726-7.726 7.726z" fill="#407093"/></g><g><path d="m425.3 400.742h-31.633c-4.268 0-7.726-3.459-7.726-7.726s3.459-7.726 7.726-7.726h31.633c4.268 0 7.726 3.459 7.726 7.726.001 4.267-3.458 7.726-7.726 7.726z" fill="#407093"/></g><g><path d="m425.3 440.692h-31.633c-4.268 0-7.726-3.459-7.726-7.726s3.459-7.726 7.726-7.726h31.633c4.268 0 7.726 3.459 7.726 7.726.001 4.267-3.458 7.726-7.726 7.726z" fill="#407093"/></g><path d="m447.441 45.228h-30.897c9.103 0 16.483 7.38 16.483 16.483v433.806c0 9.103-7.38 16.483-16.483 16.483h30.897c9.103 0 16.483-7.38 16.483-16.483v-433.806c-.001-9.103-7.38-16.483-16.483-16.483z" fill="#d8e2f1"/><path d="m62.528 61.711v404.933c1.495.178-.552.128 29.202.128v-405.061c0-9.103 7.38-16.483 16.483-16.483h-29.202c-9.104 0-16.483 7.38-16.483 16.483z" fill="#80b4fb"/></g></svg>